<svg xmlns="http://www.w3.org/2000/svg" viewBox="0 0 1500 700" version="1.1"><path d="" stroke="none" fill="#fcbc04" fill-rule="evenodd"/><path d="M 140.505 253.995 L 93.518 300.990 106.891 314.391 L 120.264 327.791 126.351 321.284 C 141.915 304.646, 163.612 295.722, 188.500 295.722 C 213.535 295.722, 235.074 304.634, 250.882 321.533 L 257.202 328.289 270.847 314.644 L 284.491 300.999 237.500 254 C 211.654 228.150, 189.829 207, 189 207 C 188.171 207, 166.348 228.148, 140.505 253.995 M 150.505 262.995 L 112.520 300.990 116.697 305.168 L 120.875 309.346 124.727 305.866 C 134.315 297.203, 148.961 289.564, 162.667 286.078 C 169.457 284.350, 173.894 284, 189 284 C 204.106 284, 208.543 284.350, 215.333 286.078 C 229.039 289.564, 243.685 297.203, 253.273 305.866 L 257.125 309.346 261.303 305.168 L 265.480 300.990 227.495 262.995 C 206.603 242.098, 189.280 225, 189 225 C 188.720 225, 171.397 242.098, 150.505 262.995 M 165.500 311.358 C 154.086 315.058, 144.431 320.732, 136.124 328.621 L 128.500 335.863 132.159 339.574 L 135.818 343.285 141.322 338.433 C 148.773 331.864, 158.128 326.353, 165.985 323.906 C 191.613 315.922, 217.082 321.156, 236.679 338.434 L 242.184 343.287 246.162 339.308 L 250.141 335.329 242.611 328.297 C 234.341 320.574, 223.771 314.508, 212.645 311.100 C 206.817 309.315, 203.295 309.007, 189.145 309.045 C 174.643 309.084, 171.599 309.382, 165.500 311.358 M 171.103 335.967 C 164.372 338.446, 158.860 342.039, 151.703 348.614 L 146.137 353.728 150.005 357.505 L 153.873 361.282 158.686 357.001 C 175.840 341.747, 203.941 341.889, 219.359 357.306 L 223.816 361.763 227.958 357.543 L 232.100 353.323 225.587 347.230 C 221.880 343.762, 216.149 339.712, 212.287 337.829 C 205.676 334.607, 205.123 334.514, 191 334.251 C 178.569 334.019, 175.730 334.264, 171.103 335.967 M 174.702 359.093 C 170.505 361.307, 163 368.571, 163 370.418 C 163 371.065, 164.711 373.265, 166.803 375.308 L 170.606 379.021 173.553 375.919 C 182.523 366.477, 195.162 366.252, 204.831 375.362 L 208.161 378.500 211.566 374.500 C 213.438 372.300, 214.977 370.217, 214.985 369.871 C 215.019 368.424, 206.780 360.928, 203.081 359.041 C 197.361 356.123, 180.270 356.154, 174.702 359.093 M 288 502.500 L 288 648 313.996 648 L 339.991 648 340.246 536.142 L 340.500 424.284 416.250 498.771 L 492 573.259 492 610.629 L 492 648 518 648 L 544 648 544 502.500 L 544 357 518.007 357 L 492.013 357 491.757 427.861 L 491.500 498.722 419.500 427.892 L 347.500 357.061 317.750 357.031 L 288 357 288 502.500 M 587 383 L 587 409 705.500 409 L 824 409 824 383 L 824 357 705.500 357 L 587 357 587 383 M 869 503 L 869 649 895 649 L 921 649 921 604.500 L 921 560 935.933 560 C 952.757 560, 950.975 559.026, 953.020 569.335 C 959.177 600.375, 980.528 626.952, 1009.061 639.094 C 1027.613 646.989, 1042.660 649.937, 1068.250 650.691 L 1088 651.274 1088 626.137 L 1088 601 1076.250 600.996 C 1048.896 600.987, 1028.956 594.311, 1016.834 581.105 C 1012.283 576.147, 1007.274 567.768, 1005.563 562.250 C 1004.920 560.175, 1005.177 560, 1008.867 560 C 1011.068 560, 1016.161 559.316, 1020.185 558.479 C 1060.014 550.199, 1088.855 524.041, 1100.648 485.500 C 1103.219 477.101, 1103.403 475.297, 1103.403 458.500 C 1103.403 441.703, 1103.219 439.899, 1100.648 431.500 C 1088.867 392.998, 1059.974 366.793, 1020.185 358.521 C 1014.031 357.242, 1001.441 357, 940.935 357 L 869 357 869 503 M 1177.904 502.763 L 1114.308 648.500 1142.835 648.766 C 1163.807 648.961, 1171.554 648.721, 1172.087 647.860 C 1172.485 647.216, 1194.784 596.359, 1221.639 534.844 C 1248.495 473.330, 1270.742 423, 1271.076 423 C 1271.410 423, 1293.442 473.673, 1320.037 535.606 C 1346.631 597.540, 1368.871 648.397, 1369.459 648.623 C 1370.046 648.848, 1382.985 648.913, 1398.211 648.766 L 1425.895 648.500 1363.322 502.750 L 1300.748 357 1271.124 357.013 L 1241.500 357.025 1177.904 502.763 M 183.986 383.514 L 179.555 388.029 184.278 392.751 L 189 397.474 193.722 392.751 L 198.445 388.029 194.014 383.514 C 191.577 381.032, 189.321 379, 189 379 C 188.679 379, 186.423 381.032, 183.986 383.514 M 921 458.464 L 921 508 965.250 507.983 C 999.820 507.969, 1010.981 507.651, 1016.270 506.531 C 1038.442 501.832, 1054.329 481.574, 1054.329 458 C 1054.329 438.656, 1043.238 420.744, 1026.288 412.715 L 1019.500 409.500 970.250 409.214 L 921 408.928 921 458.464 M 679 543 L 679 649 705 649 L 731 649 731 543 L 731 437 705 437 L 679 437 679 543 M 162 543.500 L 162 649 188 649 L 214 649 214 543.500 L 214 438 188 438 L 162 438 162 543.500" stroke="none" fill="#fcc404" fill-rule="evenodd"/></svg>